<svg t="1702882256083" class="icon" viewBox="0 0 1024 1024" version="1.1" xmlns="http://www.w3.org/2000/svg" p-id="3488" width="48" height="48"><path d="M618.5984 832.79872h-98.60096v-113.50016h24.80128c-8.59648-19.79904-15.19616-38.49728-19.89632-57.29792H154.39872c-17.39776 0-33.1008-2.2016-33.1008-18.69824v-19.80416h396.50304c-0.39936 0-0.79872-12.6976-0.79872-18.29888 0-12.29824 1.19808-19.2 2.9952-38.00064h-398.6944v-353.9968c0-7.20384 6.2976-13.80352 11.19744-18.90304 4.89984-5.09952 14.7968-8.09984 22.00064-8.09984H767.8976c7.20384 0 18.70336 8.20224 18.70336 27.10016v165.20192c18.69824 3.89632 37.49888 10.09664 57.29792 17.89952V213.4016c0-36.3008-27.39712-84.3008-64.49664-84.3008H154.40384c-21.10464 0-45.60384 10.8032-61.0048 25.89696-15.49824 15.2064-29.39904 36.70016-29.39904 58.40384v430.99648c0 42.7008 24.89856 74.90048 90.39872 74.90048h213.60128v113.50016H306.60096c-7.19872 0-13.39904 3.79904-18.50368 8.90368-5.1968 5.09952-7.69536 11.89888-7.69536 19.0976 0 7.19872 2.59584 15.09888 7.70048 19.99872 5.09952 4.89984 11.29984 9.20064 18.49856 9.20064h312.09984c7.19872 0 13.39904-3.99872 18.49856-8.89856s7.70048-11.6992 7.70048-18.90304c0-7.19872-2.60096-14.99648-7.70048-20.096-5.1968-5.20192-11.39712-9.30304-18.60096-9.30304z m-136.09984 0H425.20064v-113.50016h57.29792v113.50016z" fill="#000000" p-id="3489"></path><path d="M748.6976 681.90208c-39.296 0-71.296-32-71.296-71.30112s32-71.30112 71.296-71.30112c39.30112 0 71.30112 32 71.30112 71.30112s-32 71.30112-71.30112 71.30112z m0-104.50432c-18.29888 0-33.29536 14.90432-33.29536 33.30048 0 18.304 14.8992 33.30048 33.29536 33.30048 18.304 0 33.30048-14.8992 33.30048-33.30048a33.29024 33.29024 0 0 0-33.30048-33.30048z" fill="#000000" p-id="3490"></path><path d="M748.20096 813.99808c-14.8992 0-28.89728-1.69984-39.5008-12.09856-10.7008-10.50112-16.70144-22.49728-16.90112-37.49888-4.70016-1.69984-9.3952-3.10272-13.89568-5.2992-10.40384 9.99936-24.09984 16.29696-38.59968 16.29696h-0.50176c-14.8992 0-28.9024-5.2992-39.5008-15.69792-10.79808-10.5984-16.70144-24.40192-16.90112-39.5008a55.92576 55.92576 0 0 1 16-39.79776 186.3424 186.3424 0 0 1-5.80096-13.9008c-14.49984-0.30208-28.09856-5.90336-38.49728-16.1024a56.68864 56.68864 0 0 1-16.90112-39.79776 56.2432 56.2432 0 0 1 16.19968-40.09984 56.00256 56.00256 0 0 1 39.5008-16.90112c1.80224-4.89984 3.79904-9.7024 6.00064-14.39744-9.99936-10.50112-15.60064-24.10496-15.69792-38.7072a55.91552 55.91552 0 0 1 16.29696-39.99744c21.80096-22.09792 57.50272-22.4 79.60064-0.69632 4.3008-1.9968 8.69888-3.80416 13.10208-5.4016 0.49664-30.69952 25.6-55.5008 56.3968-55.5008 30.80192 0 55.90016 24.80128 56.40192 55.5008 4.79744 1.69984 9.4976 3.70176 14.10048 5.80096 21.89824-21.09952 56.79616-21.09952 78.69952 0.19968 10.79808 10.496 16.79872 24.6016 16.9984 39.70048a55.91552 55.91552 0 0 1-15.8976 39.90016c2.0992 4.50048 3.99872 9.09824 5.69856 13.7984 30.39744 0.50176 55.19872 25.20064 55.5008 55.70048a55.7056 55.7056 0 0 1-16.1024 40.09984 56.45312 56.45312 0 0 1-39.3984 16.9984 182.25664 182.25664 0 0 1-6.00064 14.40256 56.576 56.576 0 0 1 15.80032 38.59968 56.22272 56.22272 0 0 1-16.19968 40.09984c-21.69856 22.09792-57.40032 22.49728-79.60064 0.90112-4.59776 2.19648-9.29792 0-14.10048 1.69984-0.59904 30.39744-25.40032 51.29728-55.99744 51.29728h-0.30208v0.39936z m-75.89888-96.896c3.49696 0 6.90176 0.896 9.89696 2.79552a126.4896 126.4896 0 0 0 35.39968 14.80192 19.0976 19.0976 0 0 1 12.20096 9.50272 18.7904 18.7904 0 0 1 1.1008 15.39584c-0.79872 2.304-1.19808 4.3008-1.19808 6.30272 0 4.99712 1.9968 9.6 5.49888 12.99968 3.50208 3.39968 7.3984 5.4016 13.10208 5.2992 10.19904-0.09728 18.29888-8.40192 18.29888-18.60096 0-1.69984-0.39936-3.59936-1.2032-5.80096a19.23584 19.23584 0 0 1 1.2032-15.39584 19.2768 19.2768 0 0 1 12.20096-9.40032 128.2816 128.2816 0 0 0 35.69664-14.69952 18.71872 18.71872 0 0 1 15.30368-1.89952 19.21024 19.21024 0 0 1 11.6992 10.09664c0.9984 2.2016 2.19648 3.90144 3.59936 5.2992a18.56512 18.56512 0 0 0 26.10176-0.19968 18.78016 18.78016 0 0 0 5.2992-13.09696c0-4.89984-2.00192-9.50272-5.504-12.99968-1.19808-1.2032-2.89792-2.304-4.99712-3.39968a19.06688 19.06688 0 0 1-9.99936-11.70432 19.13856 19.13856 0 0 1 1.9968-15.29856 125.78304 125.78304 0 0 0 14.90432-35.90144 19.24096 19.24096 0 0 1 9.3952-12.19584 18.8416 18.8416 0 0 1 15.40096-1.2032 22.7328 22.7328 0 0 0 6.30272 1.2032 18.75968 18.75968 0 0 0 12.99968-5.504 18.24768 18.24768 0 0 0 5.1968-13.09696c-0.09728-10.10176-9.09824-17.69984-18.59584-18.2016-1.80224 0.30208-3.60448 0.39936-5.80096 1.19808a19.21024 19.21024 0 0 1-15.40096-1.09568 19.16928 19.16928 0 0 1-9.4976-12.20096 126.27456 126.27456 0 0 0-14.70464-35.39968 19.11808 19.11808 0 0 1-1.9968-15.30368 19.05664 19.05664 0 0 1 9.99936-11.6992c2.2016-1.1008 3.99872-2.29888 5.2992-3.69664a18.80064 18.80064 0 0 0 5.2992-13.10208c0-4.89984-1.9968-9.6-5.49888-12.99968-7.30112-7.10144-19.00032-6.99904-26.10176 0.30208-1.19808 1.19808-2.29888 2.89792-3.29728 4.99712a19.05664 19.05664 0 0 1-11.6992 9.99936 18.7136 18.7136 0 0 1-15.30368-1.9968 123.41248 123.41248 0 0 0-35.59936-14.70464 18.87744 18.87744 0 0 1-12.20096-9.4976 18.85696 18.85696 0 0 1-1.19808-15.40096c0.79872-2.29888 1.19808-4.1984 1.19808-6.09792a18.41664 18.41664 0 0 0-18.39616-18.40128 18.41664 18.41664 0 0 0-18.40128 18.40128c0 1.8944 0.39936 3.79904 1.19808 6.09792 1.80224 5.09952 1.40288 10.7008-1.19808 15.40096a19.42528 19.42528 0 0 1-12.20096 9.4976 126.53056 126.53056 0 0 0-34.89792 14.30016 19.1232 19.1232 0 0 1-15.30368 1.90464 19.22048 19.22048 0 0 1-11.6992-10.10176 17.55648 17.55648 0 0 0-3.59936-5.2992 18.46784 18.46784 0 0 0-26.09664 0.19968c-3.4048 3.49696-5.4016 8.19712-5.30432 12.99968 0 4.89984 2.00192 9.6 5.504 12.99968 1.30048 1.19808 2.89792 2.29888 4.99712 3.39968a18.96448 18.96448 0 0 1 9.99936 11.8016 19.08736 19.08736 0 0 1-1.9968 15.29856 126.4896 126.4896 0 0 0-15.0016 35.79904 19.10784 19.10784 0 0 1-9.4976 12.20096 19.23072 19.23072 0 0 1-15.40096 1.1008c-2.304-0.79872-4.20352-1.40288-6.20032-1.2032-5.00224 0-9.6 2.00192-12.99968 5.504-3.50208 3.49696-5.2992 8.19712-5.2992 13.09696 0 4.89984 1.9968 9.50272 5.49888 12.99968a18.31936 18.31936 0 0 0 12.89728 5.2992c1.60256 0.2048 3.79904-0.39936 6.10304-1.19808 5.09952-1.69984 10.5984-1.30048 15.29856 1.30048a19.2768 19.2768 0 0 1 9.40032 12.20096 128.54784 128.54784 0 0 0 14.59712 35.59936c2.80064 4.59776 3.50208 10.19904 1.90464 15.29856a19.22048 19.22048 0 0 1-10.10176 11.6992c-2.2016 1.00352-3.90144 2.2016-5.2992 3.60448a18.78016 18.78016 0 0 0-5.2992 13.09696c0 4.89984 1.9968 9.6 5.49888 12.99968 3.49696 3.50208 8.69888 5.90336 13.09696 5.2992 4.89984 0 9.50272-1.9968 12.99968-5.49888 1.2032-1.19808 2.304-2.89792 3.3024-4.99712a19.05152 19.05152 0 0 1 11.6992-10.00448 13.07648 13.07648 0 0 1 5.4016-1.09568z" p-id="3491"></path></svg>