<svg t="1702800151969" class="icon" viewBox="0 0 1024 1024" version="1.1" xmlns="http://www.w3.org/2000/svg" p-id="4770" width="48" height="48"><path d="M941.568 122.368c-11.776-11.776-28.16-18.944-45.056-18.944H128c-16.896 0-33.28 6.656-45.056 18.944-11.776 11.776-18.944 28.16-18.944 45.056v530.944c0 35.328 28.672 64 64 64h768c16.896 0 33.28-6.656 45.056-18.944s18.944-28.16 18.944-45.056V167.424c0-16.896-6.656-33.28-18.432-45.056zM896 698.368H128V167.424h768v530.944zM928.256 829.44H97.792c-19.456 0-31.744 12.8-31.744 31.744 0 19.456 12.8 31.744 31.744 31.744h830.464c19.456 0 31.744-12.8 31.744-31.744s-12.8-31.744-31.744-31.744z" p-id="4771"></path><path d="M353.792 421.376l2.56 1.536c2.56 1.536 4.096 3.072 5.632 5.632 2.048 3.072 2.56 7.168 1.536 11.264-1.024 4.096-3.584 7.168-7.68 9.216l-2.048 1.536c-8.192 4.608-13.824 11.776-16.384 20.992-2.56 8.704-1.024 18.432 3.584 26.624l30.72 52.224c6.144 10.752 17.92 16.896 30.208 16.896 6.144 0 12.288-1.536 17.92-4.608l2.56-1.536c6.144-3.584 13.824-2.56 18.944 2.56 3.072 2.56 4.608 6.656 4.608 10.752v3.072c0 18.944 15.872 34.304 34.816 34.304H542.72c9.216 0 17.92-3.584 24.576-9.728 6.656-6.656 10.752-15.36 10.24-24.576v-3.072c0-2.56 0.512-5.12 2.048-7.168 1.536-2.048 3.072-4.096 5.632-5.632 5.12-2.56 11.264-2.56 16.384 0l2.56 1.536c8.192 4.608 17.408 5.632 26.112 3.072 9.216-2.56 16.896-8.192 21.504-15.872l30.72-52.224c4.608-8.192 6.144-17.408 3.584-26.624-2.56-9.216-8.192-16.384-16.384-20.992l-2.56-1.536c-2.048-1.024-4.096-3.072-5.632-5.632-2.048-3.072-2.56-7.168-1.536-10.752 1.024-4.096 3.584-7.68 7.68-9.728l2.56-1.536c8.192-4.608 13.824-12.288 16.384-20.992 2.56-8.704 1.024-18.432-3.584-26.112l-30.72-52.224c-6.144-10.752-17.92-16.896-30.208-16.896-6.144 0-12.288 1.536-17.408 4.608l-2.56 1.536c-2.56 1.536-5.12 2.048-7.68 2.048-8.704 0-15.872-7.168-15.872-15.36v-3.072c0-9.216-3.584-17.92-10.24-24.576-6.656-6.656-15.36-9.728-24.576-9.728h-61.44c-9.216 0-18.432 3.584-24.576 9.728-6.656 6.656-10.752 15.36-10.24 24.576v3.072c0 2.56-0.512 5.12-2.048 7.168-1.536 2.048-3.072 4.096-5.632 5.632-5.12 2.56-11.264 2.56-16.384 0l-2.56-1.536c-8.192-4.608-17.408-5.632-26.112-3.584-8.704 2.56-16.896 8.192-21.504 15.872l-30.72 52.224c-4.608 8.192-6.144 17.408-3.584 26.624 1.024 9.216 7.168 16.896 14.848 20.992z m54.784-69.632c16.384 8.192 35.328 7.68 51.712-1.024 8.704-4.608 15.36-11.776 20.48-19.968 4.096-7.168 6.656-15.36 7.168-24.064h47.104c2.048 28.16 25.6 50.688 54.784 50.688 9.216 0 17.408-2.048 25.088-6.144l23.04 38.912c-11.264 7.168-19.456 18.432-22.528 31.232-3.584 13.824-1.536 28.672 5.632 40.96 4.096 7.168 10.24 13.312 16.896 17.92l-23.04 38.912c-16.384-8.192-35.328-7.68-51.712 1.024-8.704 4.608-15.36 11.776-20.48 19.968-4.096 7.168-6.656 15.36-7.168 23.552h-47.104c-1.024-13.312-6.656-25.6-16.384-34.816-10.24-10.24-24.064-15.36-38.4-15.36-8.704 0-17.408 2.048-24.576 5.632l-23.04-38.912c10.752-7.168 18.944-17.92 22.528-30.72 4.096-14.336 2.048-29.184-5.632-41.472-4.096-7.168-10.24-13.312-16.896-17.92l22.528-38.4z" p-id="4772"></path><path d="M512 499.2c34.816 0 63.488-28.672 63.488-63.488 0-34.816-28.672-63.488-63.488-63.488-34.816 0-63.488 28.672-63.488 63.488 0 35.328 28.672 63.488 63.488 63.488z m-16.384-63.488c0-9.216 7.168-16.384 16.384-16.384 9.216 0 16.384 7.168 16.384 16.384s-7.168 16.384-16.384 16.384c-9.216 0.512-16.384-7.168-16.384-16.384z" p-id="4773"></path></svg>