<svg t="1702547855892" class="icon" viewBox="0 0 1024 1024" version="1.1" xmlns="http://www.w3.org/2000/svg" p-id="4623" width="48" height="48"><path d="M665.6 0 358.4 0c-69.12 0-122.88 56.32-122.88 122.88l0 778.24c0 69.12 56.32 122.88 122.88 122.88l307.2 0c69.12 0 122.88-56.32 122.88-122.88L788.48 122.88C788.48 56.32 734.72 0 665.6 0zM737.28 901.12c0 40.96-33.28 71.68-71.68 71.68L358.4 972.8c-40.96 0-71.68-33.28-71.68-71.68l0-38.4 453.12 0L739.84 901.12zM737.28 811.52 286.72 811.52l0-614.4 453.12 0L739.84 811.52zM737.28 148.48 286.72 148.48 286.72 122.88C286.72 84.48 317.44 51.2 358.4 51.2l307.2 0c40.96 0 71.68 33.28 71.68 71.68L737.28 148.48z" p-id="4624"></path><path d="M512 926.72m-25.6 0a1 1 0 1 0 51.2 0 1 1 0 1 0-51.2 0Z" p-id="4625"></path></svg>