<svg t="1702432442925" class="icon" viewBox="0 0 1024 1024" version="1.1" xmlns="http://www.w3.org/2000/svg" p-id="43776" width="48" height="48"><path d="M341.333333 490.666667c0-35.413333-28.586667-64-64-64s-64 28.586667-64 64 28.586667 64 64 64 64-28.586667 64-64z m298.666667-213.333334c0-35.413333-28.586667-64-64-64h-128c-35.413333 0-64 28.586667-64 64s28.586667 64 64 64h128c35.413333 0 64-28.586667 64-64zM362.666667 640c-35.413333 0-64 28.586667-64 64s28.586667 64 64 64 64-28.586667 64-64-28.586667-64-64-64z m149.333333-597.333333C253.226667 42.666667 42.666667 253.226667 42.666667 512s210.56 469.333333 469.333333 469.333333 469.333333-210.56 469.333333-469.333333S770.773333 42.666667 512 42.666667z m0 853.333333c-211.84 0-384-172.373333-384-384S300.16 128 512 128s384 172.373333 384 384-172.16 384-384 384z m234.666667-469.333333c-35.413333 0-64 28.586667-64 64s28.586667 64 64 64 64-28.586667 64-64-28.586667-64-64-64z m-85.333334 213.333333c-35.413333 0-64 28.586667-64 64s28.586667 64 64 64 64-28.586667 64-64-28.586667-64-64-64z" p-id="43777"></path></svg>